<?xml version="1.0" encoding="utf-8"?>
<!-- Generator: Adobe Illustrator 16.0.0, SVG Export Plug-In . SVG Version: 6.00 Build 0)  -->
<!DOCTYPE svg PUBLIC "-//W3C//DTD SVG 1.1//EN" "http://www.w3.org/Graphics/SVG/1.1/DTD/svg11.dtd">
<svg version="1.1" id="Layer_1" xmlns="http://www.w3.org/2000/svg" xmlns:xlink="http://www.w3.org/1999/xlink" x="0px" y="0px"
	 width="24px" height="24px" viewBox="0 0 24 24" enable-background="new 0 0 24 24" xml:space="preserve">
<path d="M9.5,3C13.09,3,16,5.91,16,9.5c0,1.61-0.59,3.09-1.561,4.23L14.71,14h0.79l5,5L19,20.5l-5-5v-0.79l-0.27-0.271
	C12.59,15.41,11.11,16,9.5,16C5.91,16,3,13.09,3,9.5S5.91,3,9.5,3 M9.5,5C7,5,5,7,5,9.5S7,14,9.5,14S14,12,14,9.5S12,5,9.5,5z"/>
<path d="M8.968,13.199h1.213v-1.213H8.968V13.199 M9.574,5.921c-1.34,0-2.426,1.086-2.426,2.426h1.213
	c0-0.67,0.542-1.213,1.213-1.213c0.669,0,1.213,0.543,1.213,1.213c0,1.213-1.819,1.061-1.819,3.032h1.213
	c0-1.363,1.819-1.516,1.819-3.032C12,7.007,10.914,5.921,9.574,5.921z"/>
</svg>
